# xmcd CD database file
#
# Track frame offsets:
#	150
#	21845
#	43607
#	62606
#	82922
#	103867
#	124935
#	146226
#	164456
#	182866
#	202629
#	225113
#	240349
#	263410
#	280835
#
# Disc length: 3992 seconds
#
# Revision: 0
# Processed by: cddbd v1.5.2PL0 Copyright (c) Steve Scherf et al.
# Submitted via: CDex 1.51
#
DISCID=be0f960f
DTITLE=Various Artist - 15 Salsas Colombianas Pegaditas
DYEAR=1900
DGENRE=Salsa
TTITLE0=Ni como amiga ni amante
TTITLE1=el preso
TTITLE2=ay amor, cuando hablan las miradas
TTITLE3=te mando flores
TTITLE4=Michaela
TTITLE5=la cita
TTITLE6=rebelion
TTITLE7=el flojo
TTITLE8=sobredosis
TTITLE9=torero
TTITLE10=tronco seco
TTITLE11=sen~or campanero
TTITLE12=juanita ae
TTITLE13=candela
TTITLE14=teresa
EXTD=
EXTT0=
EXTT1=
EXTT2=
EXTT3=
EXTT4=
EXTT5=
EXTT6=
EXTT7=
EXTT8=
EXTT9=
EXTT10=
EXTT11=
EXTT12=
EXTT13=
EXTT14=
PLAYORDER=
